HIERARCHY
ROOT Hips
{
	OFFSET 0.000000 114.526802 0.000000
	CHANNELS 6 Xposition Yposition Zposition Xrotation Yrotation Zrotation 
	JOINT Spine
	{
		OFFSET 0.001200 10.871696 -0.828500
		CHANNELS 3 Xrotation Yrotation Zrotation
		JOINT Spine1
		{
			OFFSET 0.001567 9.059769 -0.690400
			CHANNELS 3 Xrotation Yrotation Zrotation
			JOINT Spine1_split
			{
				OFFSET 0.001567 9.059769 -0.690400
				CHANNELS 3 Xrotation Yrotation Zrotation
				JOINT Spine2
				{
					OFFSET 0.001567 9.059769 -0.690400
					CHANNELS 3 Xrotation Yrotation Zrotation
					JOINT Neck
					{
						OFFSET 0.002900 16.307602 -1.242700
						CHANNELS 3 Xrotation Yrotation Zrotation
						JOINT Head
						{
							OFFSET 0.000000 11.176697 5.134500
							CHANNELS 3 Xrotation Yrotation Zrotation
							JOINT HeadTop_End
							{
								OFFSET 0.000000 19.355301 1.980900
								CHANNELS 3 Xrotation Yrotation Zrotation
								End Site
								{
									OFFSET 0.000000 0.000000 0.000000
								}
							}
						}
					}
					JOINT LeftShoulder
					{
						OFFSET 2.953050 7.173500 -0.608000
						CHANNELS 3 Xrotation Yrotation Zrotation
						JOINT LeftShoulder_split
						{
							OFFSET 2.953050 7.173500 -0.608000
							CHANNELS 3 Xrotation Yrotation Zrotation
							JOINT LeftArm
							{
								OFFSET 12.269704 -2.054581 0.053500
								CHANNELS 3 Xrotation Yrotation Zrotation
								JOINT LeftForeArm
								{
									OFFSET 27.894701 0.000000 0.000000
									CHANNELS 3 Xrotation Yrotation Zrotation
									JOINT LeftHand
									{
										OFFSET 28.325504 0.000000 0.000000
										CHANNELS 3 Xrotation Yrotation Zrotation
										JOINT LeftHandThumb1
										{
											OFFSET 3.245346 -0.952271 2.443998
											CHANNELS 3 Xrotation Yrotation Zrotation
											JOINT LeftHandThumb2
											{
												OFFSET 2.585732 -1.492874 1.492873
												CHANNELS 3 Xrotation Yrotation Zrotation
												JOINT LeftHandThumb3
												{
													OFFSET 2.901428 -1.675140 1.675143
													CHANNELS 3 Xrotation Yrotation Zrotation
													JOINT LeftHandThumb4
													{
														OFFSET 2.317482 -1.337997 1.337998
														CHANNELS 3 Xrotation Yrotation Zrotation
														End Site
														{
															OFFSET 0.000000 0.000000 0.000000
														}
													}
												}
											}
										}
										JOINT LeftHandIndex1
										{
											OFFSET 9.644821 -0.286484 2.441105
											CHANNELS 3 Xrotation Yrotation Zrotation
											JOINT LeftHandIndex2
											{
												OFFSET 3.105698 0.000000 0.000000
												CHANNELS 3 Xrotation Yrotation Zrotation
												JOINT LeftHandIndex3
												{
													OFFSET 2.847702 0.000000 0.000000
													CHANNELS 3 Xrotation Yrotation Zrotation
													JOINT LeftHandIndex4
													{
														OFFSET 2.381393 0.000000 0.000000
														CHANNELS 3 Xrotation Yrotation Zrotation
														End Site
														{
															OFFSET 0.000000 0.000000 0.000000
														}
													}
												}
											}
										}
										JOINT LeftHandMiddle1
										{
											OFFSET 9.898598 0.000000 0.000000
											CHANNELS 3 Xrotation Yrotation Zrotation
											JOINT LeftHandMiddle2
											{
												OFFSET 3.757004 0.000000 0.000000
												CHANNELS 3 Xrotation Yrotation Zrotation
												JOINT LeftHandMiddle3
												{
													OFFSET 3.615204 0.000000 0.000000
													CHANNELS 3 Xrotation Yrotation Zrotation
													JOINT LeftHandMiddle4
													{
														OFFSET 3.111748 0.000000 0.000000
														CHANNELS 3 Xrotation Yrotation Zrotation
														End Site
														{
															OFFSET 0.000000 0.000000 0.000000
														}
													}
												}
											}
										}
										JOINT LeftHandRing1
										{
											OFFSET 8.985931 -0.175186 -2.664412
											CHANNELS 3 Xrotation Yrotation Zrotation
											JOINT LeftHandRing2
											{
												OFFSET 3.488800 0.000000 0.000000
												CHANNELS 3 Xrotation Yrotation Zrotation
												JOINT LeftHandRing3
												{
													OFFSET 3.511902 0.000000 0.000000
													CHANNELS 3 Xrotation Yrotation Zrotation
													JOINT LeftHandRing4
													{
														OFFSET 3.128616 0.000000 0.000000
														CHANNELS 3 Xrotation Yrotation Zrotation
														End Site
														{
															OFFSET 0.000000 0.000000 0.000000
														}
													}
												}
											}
										}
										JOINT LeftHandPinky1
										{
											OFFSET 7.803169 -0.191711 -4.366735
											CHANNELS 3 Xrotation Yrotation Zrotation
											JOINT LeftHandPinky2
											{
												OFFSET 3.218903 0.000000 0.000000
												CHANNELS 3 Xrotation Yrotation Zrotation
												JOINT LeftHandPinky3
												{
													OFFSET 2.622398 0.000000 0.000000
													CHANNELS 3 Xrotation Yrotation Zrotation
													JOINT LeftHandPinky4
													{
														OFFSET 2.220100 0.000000 0.000000
														CHANNELS 3 Xrotation Yrotation Zrotation
														End Site
														{
															OFFSET 0.000000 0.000000 0.000000
														}
													}
												}
											}
										}
									}
								}
							}
						}
					}
					JOINT RightShoulder
					{
						OFFSET -2.970200 7.173500 -0.608000
						CHANNELS 3 Xrotation Yrotation Zrotation
						JOINT RightShoulder_split
						{
							OFFSET -2.970200 7.173500 -0.608000
							CHANNELS 3 Xrotation Yrotation Zrotation
							JOINT RightArm
							{
								OFFSET -12.269703 -2.054581 0.053500
								CHANNELS 3 Xrotation Yrotation Zrotation
								JOINT RightForeArm
								{
									OFFSET -27.894701 0.000000 0.000000
									CHANNELS 3 Xrotation Yrotation Zrotation
									JOINT RightHand
									{
										OFFSET -28.325504 0.000000 0.000000
										CHANNELS 3 Xrotation Yrotation Zrotation
										JOINT RightHandThumb1
										{
											OFFSET -3.245377 -0.952286 2.443929
											CHANNELS 3 Xrotation Yrotation Zrotation
											JOINT RightHandThumb2
											{
												OFFSET -2.585732 -1.492874 1.492874
												CHANNELS 3 Xrotation Yrotation Zrotation
												JOINT RightHandThumb3
												{
													OFFSET -2.901443 -1.675156 1.675149
													CHANNELS 3 Xrotation Yrotation Zrotation
													JOINT RightHandThumb4
													{
														OFFSET -2.317451 -1.337982 1.337979
														CHANNELS 3 Xrotation Yrotation Zrotation
														End Site
														{
															OFFSET 0.000000 0.000000 0.000000
														}
													}
												}
											}
										}
										JOINT RightHandIndex1
										{
											OFFSET -9.644806 -0.286407 2.441011
											CHANNELS 3 Xrotation Yrotation Zrotation
											JOINT RightHandIndex2
											{
												OFFSET -3.105698 0.000000 0.000000
												CHANNELS 3 Xrotation Yrotation Zrotation
												JOINT RightHandIndex3
												{
													OFFSET -2.847702 0.000000 0.000000
													CHANNELS 3 Xrotation Yrotation Zrotation
													JOINT RightHandIndex4
													{
														OFFSET -2.381462 0.000000 0.000000
														CHANNELS 3 Xrotation Yrotation Zrotation
														End Site
														{
															OFFSET 0.000000 0.000000 0.000000
														}
													}
												}
											}
										}
										JOINT RightHandMiddle1
										{
											OFFSET -9.898598 0.000000 0.000000
											CHANNELS 3 Xrotation Yrotation Zrotation
											JOINT RightHandMiddle2
											{
												OFFSET -3.757004 0.000000 0.000000
												CHANNELS 3 Xrotation Yrotation Zrotation
												JOINT RightHandMiddle3
												{
													OFFSET -3.615204 0.000000 0.000000
													CHANNELS 3 Xrotation Yrotation Zrotation
													JOINT RightHandMiddle4
													{
														OFFSET -3.111679 0.000000 0.000000
														CHANNELS 3 Xrotation Yrotation Zrotation
														End Site
														{
															OFFSET 0.000000 0.000000 0.000000
														}
													}
												}
											}
										}
										JOINT RightHandRing1
										{
											OFFSET -8.985954 -0.175140 -2.664455
											CHANNELS 3 Xrotation Yrotation Zrotation
											JOINT RightHandRing2
											{
												OFFSET -3.488800 0.000000 0.000000
												CHANNELS 3 Xrotation Yrotation Zrotation
												JOINT RightHandRing3
												{
													OFFSET -3.511902 0.000000 0.000000
													CHANNELS 3 Xrotation Yrotation Zrotation
													JOINT RightHandRing4
													{
														OFFSET -3.128677 0.000000 0.000000
														CHANNELS 3 Xrotation Yrotation Zrotation
														End Site
														{
															OFFSET 0.000000 0.000000 0.000000
														}
													}
												}
											}
										}
										JOINT RightHandPinky1
										{
											OFFSET -7.803070 -0.191666 -4.366796
											CHANNELS 3 Xrotation Yrotation Zrotation
											JOINT RightHandPinky2
											{
												OFFSET -3.218903 0.000000 0.000000
												CHANNELS 3 Xrotation Yrotation Zrotation
												JOINT RightHandPinky3
												{
													OFFSET -2.622398 0.000000 0.000000
													CHANNELS 3 Xrotation Yrotation Zrotation
													JOINT RightHandPinky4
													{
														OFFSET -2.220100 0.000000 0.000000
														CHANNELS 3 Xrotation Yrotation Zrotation
														End Site
														{
															OFFSET 0.000000 0.000000 0.000000
														}
													}
												}
											}
										}
									}
								}
							}
						}
					}
				}
			}
		}
	}
	JOINT LeftUpLeg
	{
		OFFSET 12.499800 -6.039001 1.644900
		CHANNELS 3 Xrotation Yrotation Zrotation
		JOINT LeftLeg
		{
			OFFSET 1.101840 -51.633369 -0.611500
			CHANNELS 3 Xrotation Yrotation Zrotation
			JOINT LeftFoot
			{
				OFFSET -1.101840 -44.274632 -2.366700
				CHANNELS 3 Xrotation Yrotation Zrotation
				JOINT LeftToeBase
				{
					OFFSET 3.515600 -11.857400 16.519300
					CHANNELS 3 Xrotation Yrotation Zrotation
					JOINT LeftToe_End
					{
						OFFSET 1.608299 0.022700 7.850599
						CHANNELS 3 Xrotation Yrotation Zrotation
						End Site
						{
							OFFSET 0.000000 0.000000 0.000000
						}
					}
				}
			}
		}
	}
	JOINT RightUpLeg
	{
		OFFSET -12.521800 -6.040703 1.615200
		CHANNELS 3 Xrotation Yrotation Zrotation
		JOINT RightLeg
		{
			OFFSET -1.103201 -51.597637 -0.797100
			CHANNELS 3 Xrotation Yrotation Zrotation
			JOINT RightFoot
			{
				OFFSET 1.103201 -44.305969 -2.151000
				CHANNELS 3 Xrotation Yrotation Zrotation
				JOINT RightToeBase
				{
					OFFSET -3.515599 -11.857600 16.660101
					CHANNELS 3 Xrotation Yrotation Zrotation
					JOINT RightToe_End
					{
						OFFSET -1.608299 0.022600 7.852201
						CHANNELS 3 Xrotation Yrotation Zrotation
						End Site
						{
							OFFSET 0.000000 0.000000 0.000000
						}
					}
				}
			}
		}
	}
}
MOTION
Frames: 5
Frame Time: 0.016667
0.698814 111.878342 -1.723829 -0.893470 1.577191 -4.764924 1.285652 -1.210382 2.422624 0.728743 0.264195 5.944686 0.000000 0.000000 0.000000 0.710789 0.781493 5.851997 1.045308 -0.304693 -2.163987 1.584931 0.544179 -8.140494 0.000000 0.000000 -0.000000 3.582358 -13.764039 -5.044452 0.000000 0.000000 0.000000 4.032787 3.514249 -83.678341 0.000002 -14.506750 0.000025 -27.592523 3.698830 -9.416218 18.491272 -0.461443 10.916068 1.284034 32.757615 -3.088970 2.117121 9.311163 -0.358611 -0.000000 -0.000005 -0.000000 0.339560 4.671347 -7.844272 0.387033 2.823582 -20.566214 0.034632 0.816841 -10.169834 0.000001 -0.000001 0.000001 0.912585 8.769265 -15.831742 0.919072 3.991131 -33.400414 0.170568 1.488885 -12.264408 -0.000001 -0.000001 -0.000002 2.555810 11.673030 -26.909200 1.710654 3.886781 -40.215461 0.544857 1.835074 -19.344156 0.000001 0.000000 -0.000000 5.576067 16.029163 -36.940638 1.378693 4.077647 -45.645621 0.486585 2.853389 -20.524732 0.000001 0.000001 -0.000002 4.508129 3.324373 5.471577 0.000000 0.000000 0.000000 -1.219627 0.655870 67.345412 -0.000004 17.736782 -0.000005 -11.193156 -9.123241 10.139294 18.491282 0.461431 -10.916079 1.284053 -32.757598 3.088938 2.008694 -8.430477 1.114715 0.000000 0.000003 -0.000000 0.339565 -4.671355 7.844285 0.387030 -2.823582 20.566260 -0.193125 -0.216347 13.843940 -0.000000 0.000000 -0.000002 0.912586 -8.769263 15.831736 0.919077 -3.991131 33.400428 0.216469 -1.688831 15.898058 -0.000001 0.000000 0.000001 2.555822 -11.673031 26.909188 1.710654 -3.886782 40.215474 -0.157953 0.035274 17.815348 0.000000 -0.000000 -0.000000 5.576075 -16.029168 36.940634 1.378686 -4.077631 45.645621 -0.727747 -0.247558 22.122742 -0.000000 -0.000001 0.000000 -18.970517 11.068503 15.394782 24.324201 9.364111 2.404917 -4.119765 3.642937 -9.421696 -0.441962 -0.000007 -0.000004 -0.000000 -0.000002 -0.000000 1.413746 -4.281175 10.558651 7.848490 -5.231062 3.260664 -8.417154 0.976991 -8.219059 -0.548654 -0.000002 0.000002 -0.000000 0.000001 0.000000 
0.870139 111.901245 -1.828847 -1.030744 1.497195 -4.706889 1.352498 -1.287789 2.391963 0.756505 0.247118 5.938194 0.000000 0.000000 0.000000 0.738527 0.764026 5.845831 0.978004 -0.318432 -2.151508 1.378055 0.492764 -8.189778 0.000001 -0.000000 0.000000 3.481399 -14.120319 -5.605323 0.000000 0.000000 0.000000 4.607626 1.926142 -82.290829 0.000006 -15.625960 0.000033 -26.729517 2.292662 -9.542684 18.491277 -0.461436 10.916102 1.284039 32.757621 -3.088983 2.117116 9.311148 -0.358617 0.000000 0.000001 -0.000000 0.342327 4.691104 -8.041203 0.393854 2.841657 -20.757758 0.037096 0.834018 -10.340947 -0.000000 -0.000001 0.000002 0.925819 8.793194 -16.029887 0.930004 4.008321 -33.604688 0.174718 1.505479 -12.435618 0.000000 0.000001 -0.000001 2.573002 11.674922 -27.109453 1.725696 3.901312 -40.425277 0.552911 1.852325 -19.536110 -0.000000 0.000000 -0.000000 5.588366 16.044828 -37.139379 1.392937 4.094060 -45.862084 0.494544 2.871004 -20.716893 -0.000000 0.000000 0.000002 4.444084 3.681469 6.315586 0.000000 0.000000 0.000000 -0.953833 1.601477 66.451443 -0.000002 17.561668 0.000005 -10.703544 -8.102136 10.189368 18.491277 0.461436 -10.916048 1.284050 -32.757608 3.088955 2.008695 -8.430475 1.114711 0.000001 0.000003 0.000000 0.339564 -4.671353 7.844300 0.387030 -2.823579 20.566234 -0.193126 -0.216347 13.843936 0.000000 -0.000000 -0.000001 0.912586 -8.769260 15.831735 0.919077 -3.991132 33.400431 0.216467 -1.688830 15.898044 -0.000001 -0.000000 0.000002 2.555822 -11.673024 26.909195 1.710654 -3.886784 40.215474 -0.157955 0.035274 17.815351 0.000000 -0.000000 -0.000000 5.576072 -16.029165 36.940621 1.378685 -4.077631 45.645628 -0.727750 -0.247562 22.122739 -0.000000 -0.000000 0.000000 -18.775709 11.077679 15.191150 24.227091 9.537158 2.462888 -4.078088 3.630698 -9.360385 -0.455798 0.000007 0.000003 0.000000 0.000000 0.000000 1.360864 -4.261939 10.381533 8.096207 -5.121978 3.269728 -8.471957 0.908623 -8.131282 -0.573828 0.000000 -0.000000 -0.000000 0.000001 0.000000 
1.058595 111.925705 -1.942719 -1.181115 1.438605 -4.647881 1.440452 -1.344639 2.362453 0.794516 0.235283 5.931273 0.000000 0.000000 0.000000 0.776544 0.751724 5.839185 0.889980 -0.340857 -2.138193 1.133666 0.404117 -8.224243 -0.000000 -0.000000 -0.000000 3.386903 -14.541432 -6.059144 0.000000 0.000000 0.000000 5.039686 0.192575 -80.959837 0.000002 -17.010822 -0.000000 -26.372207 0.413057 -9.810120 18.491270 -0.461444 10.916065 1.284027 32.757632 -3.088952 2.117131 9.311155 -0.358650 0.000001 -0.000000 0.000001 0.350676 4.748025 -8.609342 0.413894 2.893697 -21.310556 0.044510 0.883661 -10.835812 -0.000000 -0.000000 -0.000002 0.964492 8.861567 -16.601577 0.961883 4.057664 -34.193833 0.186980 1.553397 -12.930731 -0.000000 -0.000000 0.000001 2.622561 11.680437 -27.687138 1.769367 3.942881 -41.030118 0.576474 1.901953 -20.090127 -0.000000 -0.000000 -0.000000 5.624157 16.089771 -37.712937 1.434331 4.141058 -46.485759 0.517824 2.921688 -21.271487 0.000000 0.000001 -0.000003 4.394134 4.082661 7.029112 0.000000 0.000000 0.000000 -0.234258 3.590093 65.261187 -0.000001 17.586322 0.000002 -10.940898 -7.427767 11.282276 18.491286 0.461432 -10.916096 1.284061 -32.757611 3.088984 2.008701 -8.430476 1.114726 -0.000000 0.000002 -0.000000 0.339565 -4.671353 7.844258 0.387029 -2.823581 20.566237 -0.193125 -0.216347 13.843958 -0.000000 0.000000 -0.000000 0.912585 -8.769263 15.831731 0.919078 -3.991131 33.400441 0.216469 -1.688832 15.898056 0.000000 -0.000001 -0.000001 2.555822 -11.673031 26.909183 1.710654 -3.886784 40.215478 -0.157953 0.035276 17.815351 -0.000001 -0.000000 -0.000000 5.576074 -16.029175 36.940641 1.378684 -4.077634 45.645618 -0.727747 -0.247559 22.122756 -0.000000 -0.000000 -0.000002 -18.570062 11.076211 14.961657 24.123842 9.693952 2.537391 -4.031559 3.632704 -9.291536 -0.460957 -0.000002 0.000000 -0.000000 0.000002 0.000000 1.316295 -4.247813 10.195569 8.346174 -5.021331 3.275129 -8.524664 0.832679 -8.031050 -0.592866 -0.000006 -0.000000 0.000000 0.000000 0.000000 
1.256785 111.941673 -2.063782 -1.341495 1.404462 -4.589975 1.558910 -1.374171 2.340026 0.844413 0.230276 5.924724 0.000000 0.000000 0.000000 0.826480 0.746159 5.832871 0.779047 -0.371460 -2.124440 0.839366 0.280132 -8.246629 -0.000000 -0.000000 0.000000 3.290567 -15.028633 -6.435840 0.000000 0.000000 0.000000 5.374371 -1.821757 -79.646733 0.000002 -18.816343 0.000005 -26.339233 -1.273766 -10.456923 18.491281 -0.461443 10.916081 1.284018 32.757628 -3.088942 2.117128 9.311161 -0.358627 -0.000001 -0.000001 0.000001 0.365152 4.838550 -9.514793 0.446880 2.976264 -22.192003 0.057254 0.962851 -11.626603 -0.000000 0.000000 0.000002 1.027683 8.968794 -17.513018 1.013692 4.135566 -35.132154 0.207433 1.629744 -13.721923 0.000000 -0.000000 -0.000000 2.701195 11.688757 -28.607578 1.839787 4.008101 -41.993086 0.615033 1.980602 -20.973462 0.000000 0.000000 -0.000001 5.682180 16.160690 -38.627356 1.501247 4.214895 -47.478127 0.555966 3.002023 -22.155759 -0.000001 0.000000 -0.000001 4.349602 4.521132 7.630916 0.000000 0.000000 0.000000 0.856030 6.262874 63.690196 -0.000001 17.880479 -0.000005 -11.481627 -7.217069 13.280330 18.491269 0.461431 -10.916083 1.284069 -32.757615 3.088983 2.008707 -8.430471 1.114718 0.000001 -0.000001 -0.000000 0.339563 -4.671354 7.844286 0.387031 -2.823580 20.566226 -0.193126 -0.216349 13.843940 -0.000000 0.000000 0.000001 0.912585 -8.769265 15.831730 0.919078 -3.991132 33.400428 0.216470 -1.688832 15.898064 0.000000 0.000000 0.000001 2.555822 -11.673027 26.909195 1.710653 -3.886781 40.215450 -0.157956 0.035273 17.815346 -0.000000 0.000001 -0.000000 5.576075 -16.029168 36.940648 1.378686 -4.077634 45.645642 -0.727749 -0.247558 22.122739 0.000001 0.000000 0.000000 -18.380222 11.056149 14.715018 24.061370 9.812235 2.634341 -4.001428 3.669955 -9.225719 -0.456936 0.000009 0.000000 -0.000000 -0.000002 -0.000000 1.231402 -4.248446 10.004808 8.703257 -4.931454 3.277714 -8.634900 0.752742 -7.918588 -0.615583 0.000004 -0.000003 0.000000 -0.000001 -0.000000 
1.473511 111.964180 -2.205488 -1.513974 1.400850 -4.534411 1.699176 -1.383975 2.323172 0.902437 0.230198 5.918853 0.000000 0.000000 0.000000 0.884560 0.745467 5.827210 0.653534 -0.407667 -2.110207 0.510711 0.131739 -8.258002 0.000000 0.000000 0.000000 3.187924 -15.568361 -6.781296 0.000000 0.000000 0.000000 5.632253 -3.901330 -78.280170 0.000002 -20.863438 -0.000010 -26.510228 -2.635373 -11.372692 18.491284 -0.461446 10.916084 1.284031 32.757615 -3.088977 2.117124 9.311163 -0.358612 0.000001 0.000002 -0.000002 0.386717 4.959012 -10.723704 0.492922 3.085747 -23.369545 0.076026 1.068595 -12.685530 -0.000000 -0.000001 0.000001 1.115003 9.108792 -18.730491 1.084793 4.238151 -36.384141 0.236467 1.731513 -14.781438 0.000000 0.000000 0.000000 2.805287 11.698572 -29.836042 1.935388 4.093212 -43.277373 0.668419 2.084701 -22.153406 -0.000000 -0.000000 0.000000 5.761510 16.253963 -39.848816 1.592389 4.311458 -48.800721 0.608836 3.108378 -23.336989 -0.000000 0.000001 0.000001 4.302025 4.983963 8.172978 0.000000 0.000000 0.000000 2.191161 9.164572 61.835499 0.000004 18.303049 -0.000039 -12.081336 -7.417312 15.925749 18.491284 0.461437 -10.916063 1.284047 -32.757621 3.088948 2.008695 -8.430477 1.114692 0.000001 0.000001 0.000000 0.339566 -4.671350 7.844280 0.387028 -2.823582 20.566198 -0.193124 -0.216346 13.843950 -0.000000 0.000000 0.000001 0.912586 -8.769261 15.831754 0.919075 -3.991136 33.400400 0.216469 -1.688830 15.898061 0.000000 0.000000 0.000002 2.555822 -11.673029 26.909188 1.710652 -3.886781 40.215461 -0.157955 0.035271 17.815351 0.000000 -0.000000 -0.000000 5.576077 -16.029165 36.940651 1.378684 -4.077632 45.645628 -0.727745 -0.247567 22.122750 0.000001 0.000001 0.000001 -18.180632 11.034164 14.446031 23.965537 9.892132 2.744457 -3.944947 3.724030 -9.140245 -0.448571 0.000010 0.000000 -0.000000 0.000000 0.000000 1.178963 -4.244282 9.810040 8.991579 -4.865337 3.278219 -8.698856 0.664536 -7.796375 -0.642030 -0.000002 -0.000003 -0.000000 -0.000001 -0.000000 
